<svg xmlns="http://www.w3.org/2000/svg"><symbol id="icon-instagram" viewBox="0 0 50 50"><path d="M16 3C8.83 3 3 8.83 3 16v18c0 7.17 5.83 13 13 13h18c7.17 0 13-5.83 13-13V16c0-7.17-5.83-13-13-13H16zm21 8c1.1 0 2 .9 2 2s-.9 2-2 2-2-.9-2-2 .9-2 2-2zm-12 3c6.07 0 11 4.93 11 11s-4.93 11-11 11-11-4.93-11-11 4.93-11 11-11zm0 2c-4.96 0-9 4.04-9 9s4.04 9 9 9 9-4.04 9-9-4.04-9-9-9z"/></symbol><symbol id="icon-telegram" viewBox="0 0 50 50"><path d="M46.137 6.552c-.75-.636-1.928-.727-3.146-.238h-.002c-1.281.514-36.261 15.518-37.685 16.131-.259.09-2.521.934-2.288 2.814.208 1.695 2.026 2.397 2.248 2.478l8.893 3.045c.59 1.964 2.765 9.21 3.246 10.758.3.965.789 2.233 1.646 2.494.752.29 1.5.025 1.984-.355l5.437-5.043 8.777 6.845.209.125c.596.264 1.167.396 1.712.396.421 0 .825-.079 1.211-.237 1.315-.54 1.841-1.793 1.896-1.935l6.556-34.077c.4-1.82-.156-2.746-.694-3.201zM22 32l-3 8-3-10 23-17-17 19z"/></symbol><symbol id="icon-viber" viewBox="0 0 50 50"><path d="M44.781 13.156c-.781-2.789-2.328-4.992-4.593-6.55-2.86-1.973-6.149-2.668-8.989-3.094-3.93-.586-7.488-.668-10.883-.254-3.18.39-5.574 1.012-7.757 2.015-4.282 1.97-6.852 5.153-7.637 9.461a58.837 58.837 0 00-.79 5.79c-.343 4.171-.03 7.863.954 11.285.96 3.336 2.637 5.718 5.125 7.285.633.398 1.445.687 2.23.965.446.156.88.308 1.235.476.328.153.328.18.324.453-.027 2.371 0 7.02 0 7.02l.008.992h1.781l.29-.281c.19-.18 4.605-4.446 6.179-6.164l.215-.239c.27-.312.27-.312.547-.316 2.125-.043 4.296-.125 6.453-.242 2.613-.14 5.64-.395 8.492-1.582 2.61-1.09 4.515-2.82 5.66-5.14 1.195-2.423 1.902-5.044 2.168-8.016.469-5.227.137-9.762-1.012-13.864zM35.383 33.48c-.656 1.067-1.633 1.81-2.785 2.29-.844.351-1.703.277-2.535-.075-6.965-2.949-12.43-7.593-16.04-14.273-.746-1.375-1.261-2.875-1.855-4.328-.121-.297-.113-.649-.168-.977.05-2.347 1.852-3.672 3.672-4.07.695-.156 1.312.09 1.828.586a16.005 16.005 0 013.41 4.715c.371.777.203 1.465-.43 2.043-.132.12-.27.23-.414.34-1.445 1.085-1.656 1.91-.886 3.546 1.312 2.785 3.492 4.657 6.308 5.817.742.304 1.442.152 2.008-.45.078-.078.164-.156.219-.25 1.11-1.851 2.723-1.667 4.21-.613.977.696 1.927 1.43 2.891 2.137 1.473 1.082 1.461 2.098.567 3.562zM26.145 15c-.329 0-.657.027-.98.082a.999.999 0 11-.328-1.973c.429-.074.87-.109 1.308-.109C30.477 13 34 16.523 34 20.855c0 .442-.035.883-.11 1.31a1 1 0 01-1.972-.33A5.865 5.865 0 0026.145 15zM31 21c0 .55-.45 1-1 1s-1-.45-1-1c0-1.652-1.348-3-3-3-.55 0-1-.45-1-1s.45-1 1-1c2.758 0 5 2.242 5 5zm5.71 2.223a1 1 0 01-1.952-.446 8.875 8.875 0 00.219-1.96c0-4.86-3.957-8.817-8.817-8.817-.664 0-1.324.074-1.96.219a.996.996 0 01-1.196-.754.996.996 0 01.754-1.195c.781-.18 1.59-.27 2.402-.27 5.965 0 10.817 4.852 10.817 10.816 0 .813-.09 1.622-.266 2.407z"/></symbol><symbol id="icon-whatsapp" viewBox="0 0 50 50"><path d="M25 2C12.318 2 2 12.318 2 25c0 3.96 1.023 7.854 2.963 11.29L2.037 46.73a.999.999 0 001.203 1.241l10.896-2.699A23.014 23.014 0 0025 48c12.682 0 23-10.318 23-23S37.682 2 25 2zm11.57 31.116c-.492 1.362-2.852 2.605-3.986 2.772-1.018.149-2.306.213-3.72-.231a34.606 34.606 0 01-3.366-1.229c-5.923-2.526-9.791-8.415-10.087-8.804-.295-.389-2.411-3.161-2.411-6.03s1.525-4.28 2.067-4.864c.542-.584 1.181-.73 1.575-.73s.787.005 1.132.021c.363.018.85-.137 1.329 1.001.492 1.168 1.673 4.037 1.819 4.33.148.292.246.633.05 1.022s-.294.632-.59.973-.62.76-.886 1.022c-.296.291-.603.606-.259 1.19s1.529 2.493 3.285 4.039c2.255 1.986 4.158 2.602 4.748 2.894.59.292.935.243 1.279-.146.344-.39 1.476-1.703 1.869-2.286s.787-.487 1.329-.292c.542.194 3.445 1.604 4.035 1.896.59.292.984.438 1.132.681.148.242.148 1.41-.344 2.771z"/></symbol><symbol id="icon-youtube" viewBox="0 0 50 50"><path d="M9 4C6.24 4 4 6.24 4 9v32c0 2.76 2.24 5 5 5h32c2.76 0 5-2.24 5-5V9c0-2.76-2.24-5-5-5H9zm6 4h2.4l1.6 4 1.6-4H23l-3 7v4h-2v-4.01c-.6-1.61-2.59-5.98-3-6.99zm10 3c.89 0 1.77.27 2.33.95.43.49.67 1.28.67 2.32v1.46c0 1.04-.2 1.76-.62 2.25-.56.67-1.49 1.02-2.38 1.02-.89 0-1.8-.35-2.36-1.02-.43-.49-.64-1.21-.64-2.25v-1.45c0-1.04.23-1.84.67-2.33.56-.68 1.32-.95 2.33-.95zm4 0h2v6c.05.27.34.39.61.39.41 0 .93-.48 1.39-1.01V11h2v8h-2v-1.38c-.81.79-1.5 1.38-2.41 1.35-.66-.02-1.12-.26-1.35-.74-.14-.28-.24-.73-.24-1.39V11zm-4 1.62a1.007 1.007 0 00-.922.625 1.03 1.03 0 00-.078.396v2.808a1.028 1.028 0 00.611.94.976.976 0 00.778 0c.358-.156.611-.52.611-.94v-2.808c0-.56-.45-1.022-1-1.022zM24.99 22h.02s6.71 0 11.19.32c.63.07 1.99.08 3.21 1.33.96.94 1.27 3.1 1.27 3.1s.32 1.53.32 4.06v2.37c0 2.53-.32 4.06-.32 4.06s-.31 2.16-1.27 3.1c-1.22 1.25-2.58 1.26-3.21 1.33-4.48.32-11.2.33-11.2.33s-8.32-.08-10.88-.32c-.71-.13-2.31-.09-3.53-1.33-.96-.95-1.27-3.11-1.27-3.11S9 35.71 9 33.18v-2.37c0-2.53.32-4.06.32-4.06s.31-2.16 1.27-3.1c1.22-1.25 2.58-1.26 3.21-1.33C18.28 22 24.99 22 24.99 22zM12 26v1.979h2V38h2V27.979h2V26h-6zm13 0v12h2v-1.25c.631.781 1.453 1.25 2.125 1.25.752 0 1.408-.405 1.66-1.18.12-.419.207-.81.215-1.695v-2.75c0-.988-.134-1.732-.26-2.152-.252-.781-.862-1.218-1.615-1.223-.98-.007-1.375.5-2.125 1.375V26h-2zm-7 3v6.686c0 .722.1 1.206.23 1.523.22.514.67.791 1.31.791.73 0 1.67-.514 2.46-1.365V38h2v-9h-2v6.27c-.44.584-1.08 1.02-1.48 1.02-.26 0-.47-.11-.52-.397V29h-2zm17.03 0c-1.009 0-1.796.317-2.366.916-.42.442-.664 1.165-.664 2.102v3.066c0 .931.269 1.583.688 2.02.57.599 1.356.896 2.388.896 1.031 0 1.843-.313 2.389-.95.24-.28.394-.596.46-.948.019-.16.075-.591.075-1.102h-2v.799c0 .464-.448.84-1 .84s-1-.377-1-.84V34h4v-2.021c0-.935-.23-1.62-.643-2.063-.553-.599-1.338-.916-2.328-.916zM35 30.447c.552 0 1 .377 1 .84v1.328h-2v-1.328c0-.464.448-.84 1-.84zm-6.78.3c.546 0 .78.334.78 1.378v2.75c0 1.044-.234 1.404-.78 1.404-.31 0-.904-.213-1.22-.529v-4.375c.316-.312.91-.629 1.22-.629z"/></symbol></svg>